<svg id="XMLID_504_" xmlns="http://www.w3.org/2000/svg" width="150" height="150" viewBox="0 0 150 150">
  <g id="Group_3540" data-name="Group 3540">
    <g id="Group_3539" data-name="Group 3539">
      <path id="Path_9841" data-name="Path 9841" d="M139,216.583q.205-.189.406-.386a16.7,16.7,0,0,0,5.027-11.994v-8.578A15.643,15.643,0,0,0,128.812,180h-8.879a9.151,9.151,0,0,0-9.141,9.141v14.837a17.105,17.105,0,0,0,4.317,11.359,12.5,12.5,0,0,0-5.612,3.606L98.033,230.1c-.06.058-.118.119-.173.182a3.761,3.761,0,0,1-5.662,0,3.116,3.116,0,0,0-.271-.274L79.576,218.981a9.377,9.377,0,0,0-6.228-3.018,23.52,23.52,0,0,0,2.409-10.4v-7.257a16.414,16.414,0,0,0-16.414-16.416H59A16.875,16.875,0,0,0,42.11,198.715a25.249,25.249,0,0,1-9.523,19.813l-2.614,2.092a4.837,4.837,0,0,0,3.022,8.614h6.462a29.439,29.439,0,0,0-1.273,3.425l-8.4,27.665a11.589,11.589,0,0,0,1.6,10.11A7.785,7.785,0,0,0,37.6,273.75H76.841a7.783,7.783,0,0,0,6.223-3.315,11.59,11.59,0,0,0,1.6-10.11l-7.588-24.983a3.125,3.125,0,1,0-5.98,1.817l7.588,24.983a5.372,5.372,0,0,1-.636,4.571,1.709,1.709,0,0,1-1.2.788H37.6a1.708,1.708,0,0,1-1.2-.788,5.37,5.37,0,0,1-.635-4.571l8.4-27.665a21.844,21.844,0,0,1,2.35-5.242h5.571a23.6,23.6,0,0,0,16.835-7.047h3.741a3.125,3.125,0,0,1,2.352,1.067,3.157,3.157,0,0,0,.271.274l12.35,11.022a10.011,10.011,0,0,0,14.837-.055l11.465-11.155c.06-.058.118-.119.173-.182a6.251,6.251,0,0,1,4.7-2.135h13.713a6.25,6.25,0,0,1,6.2,7.052l-1.848,15.879-8.685,4.343-8.181-4.09-1.178-9.889a3.125,3.125,0,1,0-6.206.739l3.957,33.218a6.26,6.26,0,0,0,6.2,5.475h11.351a6.265,6.265,0,0,0,6.2-5.5l4.588-39.424A12.5,12.5,0,0,0,139,216.583Zm-69.5-11.018a17.441,17.441,0,0,1-17.421,17.419h-.573a30.386,30.386,0,0,0,9.677-13.71,3.125,3.125,0,0,0-5.9-2.069,23.283,23.283,0,0,1-17.957,15.5,31.455,31.455,0,0,0,11.026-24A10.618,10.618,0,0,1,59,188.143h.344a10.164,10.164,0,0,1,10.164,10.165Zm68.68-1.363h0a10.573,10.573,0,0,1-10.755,10.571,10.735,10.735,0,0,1-10.39-10.8v-.87a23.2,23.2,0,0,0,11.972,3.281,3.125,3.125,0,0,0,0-6.25,16.685,16.685,0,0,1-9.6-2.948,5.736,5.736,0,0,1-2.368-4.69v-3.359a2.894,2.894,0,0,1,2.891-2.891h8.879a9.386,9.386,0,0,1,9.375,9.375V204.2Zm-4.048,63.3-11.349.018L120.9,251.637l5.9,2.949a3.125,3.125,0,0,0,2.795,0l6.424-3.212Z" transform="translate(-19.352 -123.75)" fill="#a7a7a7"/>
      <path id="Path_9842" data-name="Path 9842" d="M108.173,0A41.732,41.732,0,0,0,75,16.4,41.8,41.8,0,0,0,0,41.953,38.671,38.671,0,0,0,9.8,67.7a3.125,3.125,0,1,0,4.667-4.157A32.427,32.427,0,0,1,6.25,41.953,35.681,35.681,0,0,1,41.827,6.25,35.308,35.308,0,0,1,72.321,23.557a3.125,3.125,0,0,0,5.358,0A35.308,35.308,0,0,1,108.173,6.25a35.68,35.68,0,0,1,35.577,35.7,32.428,32.428,0,0,1-8.214,21.593A3.125,3.125,0,0,0,140.2,67.7a38.67,38.67,0,0,0,9.8-25.75A41.938,41.938,0,0,0,108.173,0Z" fill="#fc4f08"/>
    </g>
  </g>
</svg>
