<svg xmlns="http://www.w3.org/2000/svg" width="42.6" height="39.68" viewBox="0 0 42.6 39.68">
  <g id="electric-plug-with-wire-icon" transform="translate(-0.25 -0.25)">
    <path id="Path_9826" data-name="Path 9826" d="M14.547,17.6H17.06V12.547a1.306,1.306,0,0,1,1.3-1.3h0a1.306,1.306,0,0,1,1.3,1.3V17.6H23.5V12.547a1.306,1.306,0,0,1,1.3-1.3h0a1.306,1.306,0,0,1,1.3,1.3V17.6h2.448a.827.827,0,0,1,.825.825v.957a.827.827,0,0,1-.825.825H14.547a.827.827,0,0,1-.825-.825V18.43a.827.827,0,0,1,.825-.825Zm3.6,3.345H25.09v1.033H18.142V20.95Zm-6.15,16.18a1.512,1.512,0,1,1-1.584,2.576A21.316,21.316,0,1,1,36.624,6.442a21.026,21.026,0,0,1,6.226,14.98,16.831,16.831,0,0,1-9.028,15.365,13.12,13.12,0,0,1-5.367,1.446,8.716,8.716,0,0,1-5-1.241c-2.513-1.584-4.063-4.6-3.588-9.194-3.248-.517-4.673-2.229-4.673-5.578v-2H28.043v1.8c0,3.391-1.591,5.467-5.12,5.807h-.017c-.419,3.443.537,5.588,2.156,6.608a5.736,5.736,0,0,0,3.283.78,10.112,10.112,0,0,0,4.115-1.123,13.836,13.836,0,0,0,7.36-12.671A18.018,18.018,0,0,0,34.492,8.581a18.3,18.3,0,1,0-22.5,28.549Z" fill="#fc4f08" fill-rule="evenodd"/>
  </g>
</svg>
