<svg xmlns="http://www.w3.org/2000/svg" width="40.2" height="19.691" viewBox="0 0 40.2 19.691">
  <g id="fashion-glasses-icon" transform="translate(0.002 0)">
    <path id="Path_9827" data-name="Path 9827" d="M.414,9.5a1.678,1.678,0,0,1-.242-.386.707.707,0,0,1-.016-.909L4.667,2.672c.036-.043.124-.154.216-.268A5.448,5.448,0,0,1,7.732.193,4.353,4.353,0,0,1,8.988,0a4.96,4.96,0,0,1,1.237.15.706.706,0,1,1-.337,1.371A3.552,3.552,0,0,0,9,1.41a2.969,2.969,0,0,0-.851.131A4.344,4.344,0,0,0,5.982,3.287l-.222.275L2.253,7.871l.317-.02A25.418,25.418,0,0,1,15.907,9.532c1.639.677,3.248,1.96,5.038,1.492,1.184-.311,2.915-1.456,4.341-1.976,4.393-1.6,8.316-1.606,12.729-1.086l-3.582-4.4-.222-.275a4.344,4.344,0,0,0-2.162-1.747A2.844,2.844,0,0,0,31.2,1.41a3.552,3.552,0,0,0-.893.111A.706.706,0,1,1,29.968.15,5,5,0,0,1,31.208,0a4.375,4.375,0,0,1,1.259.193A5.461,5.461,0,0,1,35.316,2.4c.092.114.183.226.216.268L40.04,8.211a.7.7,0,0,1-.324,1.116,22.521,22.521,0,0,1-1.554,1.91,13.4,13.4,0,0,0-1.331,2.555A12.175,12.175,0,0,1,34.8,17.74a4.657,4.657,0,0,1-2.617,1.681c-.131.026-.258.059-.386.079a15.715,15.715,0,0,1-6.553-.334,4.383,4.383,0,0,1-1.309-.815,12.244,12.244,0,0,1-2.058-3.458,2.674,2.674,0,0,0-1.714-1.652,2.483,2.483,0,0,0-1.839,1.567c-.366.762-.867,1.488-1.171,2.179-1.017,2.31-3.582,2.712-6.222,2.7A12.476,12.476,0,0,1,8.792,19.5c-2.584-.468-3.32-.782-4.39-3.127C3.051,13.419,2.871,11.842.414,9.5Z" transform="translate(0 0)" fill="#fc4f08" fill-rule="evenodd"/>
  </g>
</svg>
