<svg xmlns="http://www.w3.org/2000/svg" width="79.067" height="70.384" viewBox="0 0 79.067 70.384">
  <g id="fast-food-svgrepo-com" transform="translate(0 -16.307)">
    <path id="Path_9834" data-name="Path 9834" d="M221.212,59.386h-5.329V99.93a2.317,2.317,0,0,1-4.634,0V59.386H199.19a2.317,2.317,0,0,0-2.317,2.317v53.968a2.317,2.317,0,0,0,2.317,2.317h22.022a2.317,2.317,0,0,0,2.317-2.317V61.7A2.316,2.316,0,0,0,221.212,59.386Z" transform="translate(-144.462 -31.611)" fill="#ccc"/>
    <path id="Path_9835" data-name="Path 9835" d="M255.509,27.775V20.941h5.329a2.317,2.317,0,1,0,0-4.634h-7.646a2.317,2.317,0,0,0-2.317,2.317v9.151h4.634Z" transform="translate(-184.088)" fill="#a7a7a7"/>
    <path id="Path_9836" data-name="Path 9836" d="M53.67,228.309H18.938a2.631,2.631,0,0,0-2.631,2.631v3.289a8.034,8.034,0,0,0,8.025,8.025H48.276a8.034,8.034,0,0,0,8.025-8.025V230.94A2.631,2.631,0,0,0,53.67,228.309Z" transform="translate(-11.966 -155.563)" fill="#fc4f08"/>
    <path id="Path_9837" data-name="Path 9837" d="M18.939,120.475H53.671a2.631,2.631,0,0,0,2.631-2.631v-3.223A16.792,16.792,0,0,0,39.528,97.847H33.082a16.792,16.792,0,0,0-16.774,16.774v3.223A2.631,2.631,0,0,0,18.939,120.475Z" transform="translate(-11.967 -59.833)" fill="#fc4f08"/>
    <path id="Path_9838" data-name="Path 9838" d="M46.046,195.694H2.631a2.631,2.631,0,0,0,0,5.263H46.046a2.631,2.631,0,0,0,0-5.263Z" transform="translate(0 -131.631)" fill="#a7a7a7"/>
  </g>
</svg>
