<svg xmlns="http://www.w3.org/2000/svg" width="48.777" height="24.226" viewBox="0 0 48.777 24.226">
  <g id="free-shipping-icon_1_" data-name="free-shipping-icon (1)" transform="translate(-94.1 29.196)">
    <path id="Path_9828" data-name="Path 9828" d="M39.358,6.105,33.5,6.07V2.128A2.135,2.135,0,0,0,31.368,0H9.313A2.128,2.128,0,0,0,7.189,2.124a.576.576,0,0,0,1.151,0,.94.94,0,0,1,.29-.687.97.97,0,0,1,.687-.29H31.372a.99.99,0,0,1,.977.977V20.185H27.8a.569.569,0,0,0-.576.576.576.576,0,0,0,.576.576H32.92a.569.569,0,0,0,.576-.576V20.1h3.485c.266-6.01,8.88-6.836,9.757,0h1.9a12.2,12.2,0,0,0-.191-4.6c-.4-2-.286-1.612-2.155-2.33l-3.811-1.707-3.12-5.351ZM7.3,12.488a.58.58,0,1,1,0,1.159H3.184a.58.58,0,1,1,0-1.159Zm0-3.8a.58.58,0,1,1,0,1.159H2.092a.58.58,0,1,1,0-1.159Zm0-3.8a.58.58,0,0,1,0,1.159H.58a.578.578,0,1,1,0-1.155H7.3ZM25.83,4.764h3.8V6.447h-1.52V8.058h1.421v1.6H28.113v1.854h1.675v1.683H25.83V4.764Zm-4.8,0h3.8V6.447h-1.52V8.058h1.421v1.6H23.309v1.854h1.675v1.683H21.027V4.764Zm-6.165,0h1.612a12.872,12.872,0,0,1,2.183.119,1.523,1.523,0,0,1,.933.611,2.663,2.663,0,0,1,.361,1.568A2.367,2.367,0,0,1,19.7,8.384a1.347,1.347,0,0,1-1,.4,1.739,1.739,0,0,1,.909.433,1.29,1.29,0,0,1,.29.5,7.409,7.409,0,0,1,.056,1.246v2.227H17.835V10.384a1.834,1.834,0,0,0-.111-.838c-.071-.107-.266-.163-.576-.163v3.807H14.866V4.764ZM17.145,6.2V8.082a.991.991,0,0,0,.536-.1c.1-.067.155-.29.155-.659V6.855a.7.7,0,0,0-.147-.528.884.884,0,0,0-.544-.123ZM10.253,4.764h3.858V6.447H12.536V8.058h1.4v1.6h-1.4V13.2H10.253V4.764Zm5.669,15.426a.576.576,0,1,1,0,1.151h-6.6a2.094,2.094,0,0,1-1.5-.647A2.211,2.211,0,0,1,7.2,19.169V16.863a.576.576,0,0,1,.576-.576.569.569,0,0,1,.576.576v2.306a1.085,1.085,0,0,0,.3.734.954.954,0,0,0,.675.3l6.593-.016Zm5.863-3.775a3.906,3.906,0,1,0,3.906,3.906,3.906,3.906,0,0,0-3.906-3.906Zm0,2.406a1.5,1.5,0,1,0,1.5,1.5,1.5,1.5,0,0,0-1.5-1.5Zm20.074-2.406a3.906,3.906,0,1,0,3.906,3.906,3.906,3.906,0,0,0-3.906-3.906Zm0,2.406a1.5,1.5,0,1,0,1.5,1.5,1.5,1.5,0,0,0-1.5-1.5Zm-4-11.067-2.91-.036v3.747h4.879L37.858,7.753Z" transform="translate(94.1 -29.196)" fill="#fc4f08" fill-rule="evenodd"/>
  </g>
</svg>
