<svg xmlns="http://www.w3.org/2000/svg" width="12.176" height="13.994" viewBox="0 0 12.176 13.994">
  <path id="_3668865_beauty_health_heart_icon" data-name="3668865_beauty_health_heart_icon" d="M10.747,21.955a14.693,14.693,0,0,0,5.645-4.723,18.429,18.429,0,0,1-6.567,3,4.948,4.948,0,0,1,1.152-4.839c1.728-1.728,6.682-2.189,8.41-4.954a.539.539,0,0,1,.922,0A10.994,10.994,0,0,1,19.5,21.148a5.842,5.842,0,0,1-7.258,2.074C11.439,23.8,9.941,22.416,10.747,21.955Z" transform="matrix(0.999, -0.035, 0.035, 0.999, -9.98, -9.424)" fill="#fc4f08"/>
</svg>
