<svg id="_6578945_cleaning_machine_washing_washingmachine_icon" data-name="6578945_cleaning_machine_washing_washingmachine_icon" xmlns="http://www.w3.org/2000/svg" width="27.354" height="33.667" viewBox="0 0 27.354 33.667">
  <path id="Path_12" data-name="Path 12" d="M16.3,14a6.342,6.342,0,0,0-6.1,4.629l2.209.842a4.427,4.427,0,0,0,3.472-.105,6.288,6.288,0,0,1,5.155-.21l1.578.631A6.386,6.386,0,0,0,16.3,14Z" transform="translate(-2.625 0.729)" fill="#fc4f08"/>
  <path id="Path_13" data-name="Path 13" d="M27.2,0H6.156A3.1,3.1,0,0,0,3,3.156V30.51a3.1,3.1,0,0,0,3.156,3.156H27.2a3.1,3.1,0,0,0,3.156-3.156V3.156A3.1,3.1,0,0,0,27.2,0ZM7.208,7.365a3.1,3.1,0,0,1,3.156-3.156,3.1,3.1,0,0,1,3.156,3.156,3.1,3.1,0,0,1-3.156,3.156A3.1,3.1,0,0,1,7.208,7.365Zm9.469,22.094a8.417,8.417,0,1,1,8.417-8.417A8.441,8.441,0,0,1,16.677,29.458Z" transform="translate(-3)" fill="#ccc"/>
</svg>
