<svg xmlns="http://www.w3.org/2000/svg" width="44.309" height="26.48" viewBox="0 0 44.309 26.48">
  <path id="houses-icon" d="M13.252,10.6H15.14v1.93H13.252Zm-1.374,7.794h7.211v6.841h7.769V13.41a.493.493,0,0,1,.01-.1L15.533,5.021,3.962,13.32a.482.482,0,0,1,.017.128V25.232h7.9Zm16.227,7.593a.5.5,0,0,1-.5.5H3.227a.5.5,0,0,1-.5-.5V13.964c-2.545.98-3.488-2.153-2.066-3.273L15.108.131A.5.5,0,0,1,15.749.1L30.224,10.643s.054.048.059.055C32,12.542,30.19,14.979,28.105,14V25.984Zm1.789-7.593h2V25.41H40.9V14.1a.453.453,0,0,1,.014-.109L31,6.878,29.541,7.944,26.55,5.766l4.261-3.1a.424.424,0,0,1,.549.022L39.135,8.37V5.643h3.384v5.2l1.223.894a1.675,1.675,0,0,1-1.771,2.8V26.055a.426.426,0,0,1-.426.425H29.839l.055-.5ZM17.713,13.17H15.826V15.1h1.887Zm-4.461,0H15.14V15.1H13.252V13.17ZM17.713,10.6H15.826v1.93h1.887Z" transform="translate(-0.001 0)" fill="#fc4f08" fill-rule="evenodd"/>
</svg>
