<svg xmlns="http://www.w3.org/2000/svg" width="92.946" height="98.165" viewBox="0 0 92.946 98.165">
  <g id="locked-internet-security-padlock-svgrepo-com" transform="translate(-2.609)">
    <g id="Group_3538" data-name="Group 3538">
      <path id="Path_9839" data-name="Path 9839" d="M68.789,54.943c0-4.256-.007-9.083-.007-11.324a19.695,19.695,0,0,0-39.389,0c0,2.256,0,7.08-.009,11.324a9.315,9.315,0,0,0-9.317,9.314V88.851a9.315,9.315,0,0,0,9.317,9.314h39.4A9.315,9.315,0,0,0,78.1,88.851v-24.6A9.314,9.314,0,0,0,68.789,54.943ZM52.666,76.789V84.48a3.582,3.582,0,1,1-7.163,0V76.789a6.485,6.485,0,1,1,7.163,0ZM36.888,54.943c.006-4.246.013-9.066.013-11.326a12.187,12.187,0,0,1,24.373,0c0,2.238.006,7.066.006,11.326Z" fill="#fc4f08"/>
      <path id="Path_9840" data-name="Path 9840" d="M77.007,14.234a2.441,2.441,0,0,1-1.75-.976,20.426,20.426,0,0,0-16.31-8.246c-.4,0-.793.012-1.188.035a2.431,2.431,0,0,1-1.608-.486A22.787,22.787,0,0,0,21.9,12.992a2.442,2.442,0,0,1-1.861,1.369,20.294,20.294,0,0,0,.226,40.213,13.339,13.339,0,0,1,5.123-3.018c0-1.7,0-3.354,0-4.789H22.914a12.305,12.305,0,0,1,0-24.61c.343,0,.68.027,1.015.055a4,4,0,0,0,4.2-3.014,14.783,14.783,0,0,1,24.683-6.979,4,4,0,0,0,3.609,1.053,12.4,12.4,0,0,1,2.524-.261,12.22,12.22,0,0,1,11.071,6.97,3.991,3.991,0,0,0,4,2.239A12.3,12.3,0,1,1,75.25,46.767H72.78l0,4.789a13.317,13.317,0,0,1,5.12,3.017,20.293,20.293,0,0,0-.895-40.339Z" fill="#a7a7a7"/>
    </g>
  </g>
</svg>
