<svg xmlns="http://www.w3.org/2000/svg" width="32.041" height="53.407" viewBox="0 0 32.041 53.407">
  <path id="online-shop-icon" d="M6.315,0h17.2a6.315,6.315,0,0,1,6.315,6.32V12.4H27.964V7.445a1.191,1.191,0,0,0-1.187-1.187H3.042A1.191,1.191,0,0,0,1.856,7.445V44.08a1.191,1.191,0,0,0,1.187,1.187H26.773A1.191,1.191,0,0,0,27.96,44.08V42.62a6.858,6.858,0,0,0,1.869-.869v5.342a6.315,6.315,0,0,1-6.315,6.315H6.315A6.32,6.32,0,0,1,0,47.092V6.311A6.306,6.306,0,0,1,6.315,0ZM6.88,15.486a.889.889,0,0,1,0-1.778h.682a4.125,4.125,0,0,1,2.173.561,3.312,3.312,0,0,1,1.447,2.056l.23.956H31.172a.869.869,0,0,1,.869.869.822.822,0,0,1-.043.274l-2.282,9.323a.869.869,0,0,1-.869.674H14.373c.326,1.178.626,1.817,1.06,2.112.513.343,1.426.369,2.947.343H28.612a.889.889,0,0,1,0,1.778H18.4c-1.869.03-3.042-.026-3.951-.648s-1.439-1.708-1.934-3.686L9.471,16.794A1.63,1.63,0,0,0,8.8,15.777a2.451,2.451,0,0,0-1.247-.291ZM26,33.684a2.173,2.173,0,1,1-2.173,2.173A2.173,2.173,0,0,1,26,33.684Zm-9.518,0a2.173,2.173,0,1,1-2.173,2.173A2.173,2.173,0,0,1,16.486,33.684Zm5.433-14.621v3.229h7.319l.8-3.229Zm0,5.007v2.577h6.246L28.8,24.07Zm-1.773,2.577V24.07H13.221c.235.869.469,1.717.691,2.577Zm0-4.346V19.063H11.887c.283,1.078.578,2.173.869,3.229ZM14.93,46.64a2.608,2.608,0,1,1-2.608,2.608A2.608,2.608,0,0,1,14.93,46.64Z" fill="#fc4f08" fill-rule="evenodd"/>
</svg>
