<svg xmlns="http://www.w3.org/2000/svg" width="290.624" height="290.626" viewBox="0 0 290.624 290.626">
  <g id="online-store-svgrepo-com" transform="translate(-0.001)">
    <g id="Group_3537" data-name="Group 3537">
      <rect id="Rectangle_131" data-name="Rectangle 131" width="117.187" height="103.125" transform="translate(173.438 32.813)" fill="#f9ba48"/>
      <rect id="Rectangle_132" data-name="Rectangle 132" width="9.375" height="9.375" transform="translate(93.751 18.75)" fill="#a7a7a7"/>
      <rect id="Rectangle_133" data-name="Rectangle 133" width="28.125" height="9.375" transform="translate(60.939 18.75)" fill="#a7a7a7"/>
      <path id="Path_9820" data-name="Path 9820" d="M98.439,264.844A16.406,16.406,0,1,0,82.033,281.25,16.424,16.424,0,0,0,98.439,264.844Zm-16.407,7.031a7.031,7.031,0,1,1,7.031-7.031A7.039,7.039,0,0,1,82.032,271.875Z" fill="#a7a7a7"/>
      <path id="Path_9821" data-name="Path 9821" d="M284.738,172.041a13.462,13.462,0,0,0-18.708-6.257l-10.284,5.62,1.416-4.209a13.032,13.032,0,0,0-24.45-9l-6.1,15.244H212.148l-.258-.127,10.139-5.391a14.5,14.5,0,0,0,7.069-16.988,14.484,14.484,0,0,0-18.656-9.464l-38.456,13.491-7.828,5.119-.094-146.016A14.08,14.08,0,0,0,150,0H14.064A14.08,14.08,0,0,0,0,14.063v262.5a14.08,14.08,0,0,0,14.062,14.063H150a14.079,14.079,0,0,0,14.062-14.063V210.877l42.75.061,47.334-9.469,24.291-11.813A13.4,13.4,0,0,0,284.738,172.041Zm-43.322-10.364a3.781,3.781,0,0,1,6.366-.778,3.611,3.611,0,0,1,.5,3.3l-3.108,9.239H236.71ZM9.376,14.063a4.689,4.689,0,0,1,4.687-4.688H150a4.691,4.691,0,0,1,4.688,4.692L154.7,37.5H9.376ZM150,281.25H14.064a4.689,4.689,0,0,1-4.687-4.688V248.437H154.689v28.125A4.691,4.691,0,0,1,150,281.25Zm4.687-42.187H9.376V46.875H154.712l.075,117.188H126.564v-9.375H60.939v60.938h65.625v-8.344l17.878,3.567,10.247.014v28.2h0Zm-37.5-75v42.188H70.314V164.063Zm157.1,17.193L251.706,192.4l-45.816,9.164H145.876l-19.312-3.844V173.437H160.9l14.752-9.834,37.9-13.3a5.112,5.112,0,0,1,6.581,3.342,5.12,5.12,0,0,1-2.494,5.991l-26.194,13.927,18.492,9.248h44.494l16.1-8.8a3.969,3.969,0,0,1,3.244-.291,4.081,4.081,0,0,1,.52,7.532Z" fill="#a7a7a7"/>
      <path id="Path_9822" data-name="Path 9822" d="M201.563,39.844a30.469,30.469,0,0,1,60.938,0V56.25h9.375V39.844a39.844,39.844,0,0,0-79.688,0V56.25h9.375V39.844Z" fill="#ccc"/>
    </g>
  </g>
</svg>
