<svg xmlns="http://www.w3.org/2000/svg" width="33.915" height="30.94" viewBox="0 0 33.915 30.94">
  <path id="grocery-store-icon" d="M8.611,17.556a.53.53,0,1,1,0-1.059h.77a2.464,2.464,0,0,1,1.286.334,2.022,2.022,0,0,1,.861,1.222.05.05,0,0,0,0,.041l.132.552h.3v-2.18a.535.535,0,0,1,.532-.532h2.811a.535.535,0,0,1,.532.532V17.76a2.4,2.4,0,0,1,1.7-.712,2.356,2.356,0,0,1,.828.146,2.889,2.889,0,0,1,4.944,1.451h.13a.524.524,0,0,1,.521.524.643.643,0,0,1-.025.16l-1.38,5.518a.519.519,0,0,1-.51.4h-8.6a2.194,2.194,0,0,0,.624,1.236,3.509,3.509,0,0,0,1.746.2h6.095a.524.524,0,1,1,0,1.048h-6.07a4.091,4.091,0,0,1-2.351-.378,3.454,3.454,0,0,1-1.156-2.191h0l-1.8-6.807v-.025a.946.946,0,0,0-.4-.6,1.38,1.38,0,0,0-.748-.177Zm23-3.035V29.144a1.8,1.8,0,0,1-1.8,1.8H4.092a1.793,1.793,0,0,1-1.269-.53h0A1.791,1.791,0,0,1,2.3,29.141V14.54a7.822,7.822,0,0,0,1.617.1V29.009A.309.309,0,0,0,4,29.229H4a.309.309,0,0,0,.221.088h9.212a1.291,1.291,0,0,1,1.247-.96h0a1.294,1.294,0,0,1,1.25.96h3.159a1.291,1.291,0,0,1,1.247-.96h0a1.291,1.291,0,0,1,1.25.96h8.09a.312.312,0,0,0,.312-.312V14.568a7.375,7.375,0,0,0,1.617-.044ZM18.985,20.787a.372.372,0,0,1,.731,0v2.028a.372.372,0,0,1-.731,0Zm-2.191,0a.372.372,0,0,1,.731,0v2.028a.372.372,0,0,1-.731,0Zm-2.188,0a.372.372,0,0,1,.731,0v2.028a.372.372,0,0,1-.731,0Zm4.53-3.129a2.558,2.558,0,0,1,.684.985h2.563a1.981,1.981,0,0,0-3.247-.985Zm.858,2.033H11.972l1.195,4.5h8.479l1.1-4.5ZM15.23,18.632a.317.317,0,0,1,.047-.11V16.85a.386.386,0,0,0-.386-.386H12.968a.386.386,0,0,0-.386.386v1.782ZM29.271,12.8a6.865,6.865,0,0,1-1.462-.648,3.38,3.38,0,0,1-.585-.795,3.38,3.38,0,0,1-.585.795,4.687,4.687,0,0,1-5.67,0,3.38,3.38,0,0,1-.585-.795,3.38,3.38,0,0,1-.585.795,4.7,4.7,0,0,1-5.678,0,3.38,3.38,0,0,1-.6-.795,3.38,3.38,0,0,1-.585.795,4.7,4.7,0,0,1-5.678,0,3.38,3.38,0,0,1-.585-.795,3.38,3.38,0,0,1-.585.795,5.454,5.454,0,0,1-1.953.828,3.879,3.879,0,0,1-3.184-.828A3.247,3.247,0,0,1,0,9.853V8.572H0A.4.4,0,0,1,.047,8.39l2.3-7.353A1.488,1.488,0,0,1,3.882,0h25.96a1.635,1.635,0,0,1,1.537,1.032l2.483,7.345a.372.372,0,0,1,.052.174h0a.2.2,0,0,1,0,.039V9.853a3.247,3.247,0,0,1-.957,2.3,3.869,3.869,0,0,1-3.675.648Z" fill="#fc4f08"/>
</svg>
