<?xml version="1.0" encoding="utf-8"?>
<!-- Generator: Adobe Illustrator 22.1.0, SVG Export Plug-In . SVG Version: 6.00 Build 0)  -->
<svg version="1.1" id="Layer_1" xmlns="http://www.w3.org/2000/svg" xmlns:xlink="http://www.w3.org/1999/xlink" x="0px" y="0px"
	 viewBox="0 0 595.3 453.3" style="enable-background:new 0 0 595.3 453.3;" xml:space="preserve">
<style type="text/css">
	.st0{fill:#FFFFFF;}
	.st1{fill:#F05225;}
	.st2{clip-path:url(#SVGID_2_);fill:#F05225;}
</style>
<g>
	<path class="st0" d="M484.7,107.9c0,101.9,0,203.9,0,305.9c-124.2,0-248.4,0-372.7,0c0-124.2,0-248.5,0-372.7
		c88.8,0,177.7,0,266.6,0c-10.7,3.6-14.9,11.1-14.6,22.2c0.4,13.7,0.1,27.3,0.1,41c0,13.8,7.2,21,21,21c4.3,0,8.6,0,13,0
		c-2.1,12.2-4,23.7-6.1,35.9c1.6-0.9,2.6-1.4,3.5-2c13.9-8.7,28.1-17,41.7-26.3c8.3-5.7,16.8-9.2,26.9-7.7c0.8,0.1,1.7,0,2.5,0
		c8.1-0.5,14.7-5.6,16.9-13.1C484,110.7,484.4,109.3,484.7,107.9z M327.5,287.8c1.2-1.8,1.9-3.2,3-4.1c3.1-2.7,7.2-4.6,9.5-7.8
		c4.5-6.2,10.1-7.2,17.1-6.9c11.6,0.5,19.3-7.6,19.3-19.2c0-23.5,0.1-47-0.1-70.5c0-5.5-0.6-11.2-1.8-16.5
		c-9.3-41.4-46.9-66.9-89-60.7c-36.1,5.3-65,38.4-65.3,74.9c-0.1,14.2,0,28.3,0,42.5c0,12.3,5.5,20.3,17,24.7c1,0.4,2.3,1.5,2.5,2.5
		c3.9,15.9,12.8,28.2,26.5,37.2c1.1,0.7,1.6,2.3,2.8,4c-13.3,2.4-25.5,4.8-37.8,6.8c-18.5,3.1-30.6,13.3-36.3,31.2
		c-0.4,1.3-0.9,2.7-1.6,4.6c-6.7-6.7-13-13-19.3-19.4c-3.8-3.8-3.7-6.7,0.2-10.6c6.7-6.7,13.4-13.4,20-20c0.8-0.8,1.6-1.7,1.8-1.9
		c-15-15-29.7-29.7-44.5-44.5c-8.2,8.2-16.7,16.6-25.1,25.2c-18,18.2-18,43.6,0.1,61.8c10.7,10.7,21.4,21.4,32.1,32.1
		c16.6,16.6,33,33.5,50,49.6c14.3,13.5,37.4,14.3,52.7,1.9c11.6-9.5,22.3-20,34-30.6c-3.1-2.9-6-5.5-9.6-8.9c43.5,0,85.9,0,128.6,0
		c-0.4-1.6-0.7-2.7-1.1-3.9c-4-12-8.1-24-12-36.1c-5.8-17.7-18.2-27.6-36.5-30.6C352.8,292.7,340.7,290.2,327.5,287.8z M348.2,66.5
		c-33.8-10-67.5-10.6-100.8,0.6c-59.2,19.8-96,61.1-112.9,121.2c-3.8-6.3-7.4-12.2-11.1-18.3c-3.6,2.2-6.9,4.2-10.3,6.3
		c7.1,11.9,14.1,23.4,21.1,35.2c11.9-7.2,23.5-14.1,35.2-21.2c-2.2-3.6-4.2-6.9-6.2-10.3C158,183,153,186,148,189
		c8.3-34.4,26-62.6,53.7-84.1c42.8-33.3,90.8-41.2,143-27.1C345.8,74.1,346.9,70.5,348.2,66.5z M446.1,176.6
		c16.5,54.8,7.4,104-26.4,148.8c1.6,1.4,3.1,2.6,4.6,3.8c1.5,1.2,3,2.3,4.8,3.8c36.3-48.3,46.1-101,28.9-159
		c5.9,3.5,11.4,6.8,17.2,10.2c2.1-3.5,4.1-6.9,6.2-10.4c-12-7.2-23.5-14.1-35.2-21.1c-7.2,11.9-14.1,23.5-21.1,35.2
		c3.6,2.1,6.9,4.1,10.4,6.2C438.9,188.4,442.3,183,446.1,176.6z"/>
	<path class="st1" d="M484.7,107.9c-0.4,1.4-0.7,2.8-1.1,4.2c-2.2,7.5-8.8,12.6-16.9,13.1c-0.8,0-1.7,0.1-2.5,0
		c-10.1-1.5-18.6,2-26.9,7.7c-13.6,9.2-27.8,17.6-41.7,26.3c-0.9,0.6-1.9,1.1-3.5,2c2.1-12.2,4-23.8,6.1-35.9c-4.4,0-8.7,0-13,0
		c-13.8,0-21-7.2-21-21c0-13.7,0.3-27.3-0.1-41c-0.3-11.1,3.8-18.6,14.6-22.2c30.5,0,61,0,91.6,0c4.6,1.9,9.1,4,11.5,8.7
		c1.4,2.7,2.1,5.8,3.1,8.7C484.7,75,484.7,91.4,484.7,107.9z M408.6,136.7c7.9-5,15.5-8.9,22.1-14c10.2-7.8,21.2-11.3,34-9.8
		c5.2,0.6,7.6-2.1,7.6-7.3c0-15,0-30,0-45c0-5.2-2.1-7.3-7.2-7.3c-27.2,0-54.5,0-81.7,0c-5,0-7,2-7,7.1c0,15.1,0,30.3,0,45.4
		c0,5.2,2.1,7.3,7.2,7.3c8.5,0,16.9,0,25.4,0c1.1,0,2.3,0.1,3.5,0.2C411.3,121,410,128.4,408.6,136.7z"/>
	<path class="st0" d="M484.7,58.5c-1-2.9-1.7-6-3.1-8.7c-2.4-4.7-6.9-6.8-11.5-8.7c4.8,0,9.6,0,14.5,0
		C484.7,46.9,484.7,52.7,484.7,58.5z"/>
	<path d="M327.5,287.8c13.2,2.4,25.3,4.8,37.4,6.8c18.3,3,30.6,12.8,36.5,30.6c4,12,8,24,12,36.1c0.4,1.1,0.6,2.3,1.1,3.9
		c-42.8,0-85.2,0-128.6,0c3.6,3.4,6.5,6,9.6,8.9c-11.6,10.6-22.4,21.1-34,30.6c-15.3,12.4-38.4,11.6-52.7-1.9
		c-17.1-16.1-33.4-33-50-49.6c-10.7-10.7-21.4-21.4-32.1-32.1c-18.1-18.2-18.2-43.6-0.1-61.8c8.4-8.5,16.9-17,25.1-25.2
		c14.8,14.8,29.4,29.5,44.5,44.5c-0.3,0.3-1,1.1-1.8,1.9c-6.7,6.7-13.4,13.3-20,20c-3.9,3.9-3.9,6.8-0.2,10.6
		c6.3,6.3,12.6,12.6,19.3,19.4c0.7-1.9,1.1-3.3,1.6-4.6c5.7-17.9,17.9-28.1,36.3-31.2c12.3-2,24.5-4.4,37.8-6.8
		c-1.1-1.7-1.7-3.3-2.8-4c-13.6-9-22.5-21.3-26.5-37.2c-0.2-1-1.5-2.1-2.5-2.5c-11.5-4.4-17-12.4-17-24.7c0-14.2-0.1-28.3,0-42.5
		c0.3-36.5,29.2-69.6,65.3-74.9c42.1-6.2,79.6,19.3,89,60.7c1.2,5.4,1.7,11,1.8,16.5c0.2,23.5,0.1,47,0.1,70.5
		c0,11.7-7.7,19.7-19.3,19.2c-7.1-0.3-12.7,0.7-17.1,6.9c-2.3,3.2-6.3,5.1-9.5,7.8C329.4,284.6,328.8,286.1,327.5,287.8z
		 M363.5,199.7c0-10,1.1-20-0.2-29.7c-3.6-25.8-18.1-43.8-42.5-52.8c-24.6-9-47.2-4.2-66.9,13.1c-21.1,18.6-23.5,43.2-21.1,69.1
		c5.7,0,5.7-4.3,5.5-8.7c24.7,1.7,44.1-8.2,59.9-26.6c15.8,18.7,35.5,28.3,60,26.7c0,2.7,0,4.7,0,6.8
		C360.2,198.4,362,199.1,363.5,199.7z M397.9,352.9c-3.1-9.2-5.8-17.8-8.9-26.3c-3.7-10.2-10.9-16.8-21.6-19
		c-13.4-2.7-26.8-4.9-40.2-7.5c-2.1-0.4-3.3-0.1-4.8,1.4c-7,7.2-14.2,14.2-21.3,21.3c-0.9,0.9-1.8,1.7-3,2.8c-8.1-8.2-16-16-23.8-24
		c-1.5-1.5-2.8-2-5.1-1.6c-12.6,2.4-25.2,4.6-37.8,6.9c-11.8,2.1-20,8.7-24.2,20c-1.3,3.5-2.6,7-3.5,10.7c-0.3,1.3,0.2,3.3,1.1,4.3
		c2.8,3.2,5.9,6.1,8.9,9.1c5,5,7.3,5.1,12.5,0.4c8-7.2,15.9-14.4,24.1-21.7c7,7,13.9,13.8,20.6,20.7c1.8,1.9,3.7,2.6,6.3,2.6
		c38.7-0.1,77.5-0.1,116.2-0.1C394.8,352.9,396,352.9,397.9,352.9z M298.3,256.9c11.8,0,23.2,0,34.5,0c7.6,0,7.7,0,10.3-7.4
		c5.5-15.2,1.8-30.9,3.1-46.6c-18.7-1.8-34.5-8.8-48.1-21.4c-13.6,12.7-29.6,19.6-47.9,21.4c0,9.8-0.1,19.2,0,28.5
		c0,3.1,0.1,6.3,0.6,9.4c5.1,27,28.9,43.7,56,39.2c8.2-1.4,15.5-4.9,21.6-11.1c-10.1,0-20.1,0-30.3,0
		C298.3,264.9,298.3,261.1,298.3,256.9z M137,265.9c-15.4,13.9-15.9,32.4-1.4,47c9,9,18,18,27,27c17.4,17.4,34.7,34.8,52.1,52.1
		c13.3,13.2,34.6,11.7,45.2-2.4c-9.1-9.1-18.1-18.2-27.1-27.3c-9.8,6.7-18.1,6.6-25.6-0.8c-14.2-14-28.3-28.1-42.3-42.4
		c-2.2-2.2-3.9-5.3-4.9-8.3c-2.3-6.7,0-12.6,4.3-17.6C155.2,284,146.2,275.1,137,265.9z M243,352.8c9.3,9.3,18.4,18.3,27.5,27.5
		c2-1.8,4.3-4,6.5-6c-9.2-9.2-18.2-18.2-27.4-27.4C247.4,348.8,245,351,243,352.8z M178.7,278.5c-9-9.1-17.9-18.2-26.5-26.9
		c-2,1.7-4.2,3.5-6,5c9.3,9.3,18.2,18.3,27.1,27.2C175.2,282,177.1,280.1,178.7,278.5z M298.1,307.3c5.4-5.4,11-11,16.4-16.4
		c-10.7,3-21.8,3-32.9-0.1C287.4,296.6,293,302.2,298.1,307.3z M353.8,256.7c9.7,0.9,11.8-2.2,9.9-14.7c-2.4,1.3-5.5,2-6.6,3.8
		C355.4,249,354.9,252.9,353.8,256.7z M238,230.5c0-6.4,0-12.7,0-19.2C230.2,215.5,231.2,228,238,230.5z M358.6,211.5
		c0,6.4,0,12.7,0,19.2C366.1,227.1,365.8,214.6,358.6,211.5z"/>
	<path class="st1" d="M348.2,66.5c-1.3,4-2.4,7.7-3.5,11.3c-52.2-14-100.2-6.1-143,27.1C174,126.4,156.2,154.6,148,189
		c5-3,10-6,15.2-9.1c2.1,3.4,4.1,6.7,6.2,10.3c-11.7,7-23.3,14-35.2,21.2c-7-11.7-14-23.3-21.1-35.2c3.4-2.1,6.7-4.1,10.3-6.3
		c3.7,6.1,7.3,12,11.1,18.3C151.4,128.1,188.2,86.9,247.4,67C280.6,55.9,314.3,56.4,348.2,66.5z"/>
	<path class="st1" d="M446.1,176.6c-3.9,6.4-7.2,11.8-10.6,17.6c-3.5-2.1-6.8-4-10.4-6.2c7-11.7,14-23.3,21.1-35.2
		c11.7,7,23.3,14,35.2,21.1c-2.1,3.5-4.1,6.9-6.2,10.4c-5.8-3.5-11.3-6.7-17.2-10.2c17.2,58,7.4,110.7-28.9,159
		c-1.9-1.4-3.4-2.6-4.8-3.8c-1.5-1.2-3-2.5-4.6-3.8C453.5,280.6,462.6,231.4,446.1,176.6z"/>
	<path class="st0" d="M408.6,136.7c1.4-8.4,2.6-15.7,3.9-23.5c-1.2-0.1-2.4-0.2-3.5-0.2c-8.5,0-16.9,0-25.4,0
		c-5.1,0-7.2-2.1-7.2-7.3c0-15.1,0-30.3,0-45.4c0-5.1,2-7.1,7-7.1c27.2,0,54.5,0,81.7,0c5.1,0,7.2,2.1,7.2,7.3c0,15,0,30,0,45
		c0,5.3-2.4,8-7.6,7.3c-12.8-1.5-23.8,2-34,9.8C424.1,127.8,416.6,131.8,408.6,136.7z M388.4,77c24,0,47.8,0,71.8,0
		c0-4,0-7.8,0-11.6c-24,0-47.9,0-71.8,0C388.4,69.3,388.4,73.1,388.4,77z M436.1,101.1c0-4.2,0-8,0-11.8c-16.1,0-31.8,0-47.6,0
		c0,4,0,7.8,0,11.8C404.4,101.1,420.1,101.1,436.1,101.1z M448.5,100.9c4.1,0,7.8,0,11.7,0c0-4.1,0-7.9,0-11.7c-4,0-7.8,0-11.7,0
		C448.5,93.2,448.5,96.9,448.5,100.9z"/>
	<path class="st0" d="M363.5,199.7c-1.5-0.6-3.3-1.3-5.2-2c0-2.1,0-4.1,0-6.8c-24.5,1.6-44.1-7.9-60-26.7
		c-15.8,18.4-35.2,28.3-59.9,26.6c0.2,4.4,0.2,8.7-5.5,8.7c-2.4-25.9-0.1-50.5,21.1-69.1c19.6-17.3,42.3-22.1,66.9-13.1
		c24.4,8.9,38.9,27,42.5,52.8C364.6,179.8,363.5,189.8,363.5,199.7z"/>
	<path class="st0" d="M397.9,352.9c-1.8,0-3,0-4.2,0c-38.7,0-77.5,0-116.2,0.1c-2.6,0-4.5-0.7-6.3-2.6c-6.7-6.9-13.6-13.7-20.6-20.7
		c-8.1,7.3-16.1,14.5-24.1,21.7c-5.2,4.7-7.5,4.7-12.5-0.4c-3-3-6.1-5.9-8.9-9.1c-0.9-1-1.4-3-1.1-4.3c0.9-3.6,2.2-7.2,3.5-10.7
		c4.2-11.3,12.4-17.9,24.2-20c12.6-2.3,25.2-4.4,37.8-6.9c2.2-0.4,3.5,0,5.1,1.6c7.8,7.9,15.7,15.8,23.8,24c1.1-1.1,2.1-1.9,3-2.8
		c7.1-7.1,14.2-14.2,21.3-21.3c1.4-1.5,2.7-1.8,4.8-1.4c13.4,2.6,26.9,4.8,40.2,7.5c10.6,2.2,17.9,8.8,21.6,19
		C392.1,335.1,394.8,343.7,397.9,352.9z"/>
	<path class="st0" d="M298.3,256.9c0,4.2,0,7.9,0,12.1c10.1,0,20.2,0,30.3,0c-6.1,6.2-13.4,9.7-21.6,11.1c-27.1,4.5-51-12.2-56-39.2
		c-0.6-3.1-0.6-6.3-0.6-9.4c-0.1-9.3,0-18.6,0-28.5c18.3-1.9,34.3-8.7,47.9-21.4c13.5,12.5,29.4,19.6,48.1,21.4
		c-1.4,15.7,2.3,31.4-3.1,46.6c-2.7,7.4-2.7,7.4-10.3,7.4C321.5,256.9,310.1,256.9,298.3,256.9z"/>
	<path class="st0" d="M137,265.9c9.2,9.2,18.2,18.1,27.3,27.2c-4.3,5.1-6.6,11-4.3,17.6c1,3,2.7,6,4.9,8.3
		c14,14.3,28.1,28.4,42.3,42.4c7.5,7.4,15.8,7.5,25.6,0.8c9,9.1,18,18.1,27.1,27.3c-10.6,14.1-31.9,15.6-45.2,2.4
		c-17.5-17.3-34.8-34.7-52.1-52.1c-9-9-18-18-27-27C121.1,298.3,121.6,279.8,137,265.9z"/>
	<path class="st0" d="M243,352.8c2-1.8,4.4-4,6.6-5.9c9.2,9.2,18.2,18.2,27.4,27.4c-2.1,2-4.5,4.1-6.5,6
		C261.3,371.1,252.3,362.1,243,352.8z"/>
	<path class="st0" d="M178.7,278.5c-1.6,1.6-3.6,3.5-5.3,5.3c-8.9-8.9-17.8-17.9-27.1-27.2c1.8-1.5,4-3.3,6-5
		C160.8,260.3,169.7,269.4,178.7,278.5z"/>
	<path class="st0" d="M298.1,307.3c-5.1-5.1-10.7-10.7-16.5-16.5c11.1,3.1,22.2,3.1,32.9,0.1C309.1,296.4,303.5,301.9,298.1,307.3z"
		/>
	<path class="st0" d="M353.8,256.7c1.1-3.8,1.5-7.7,3.3-10.8c1.1-1.9,4.2-2.5,6.6-3.8C365.6,254.5,363.5,257.6,353.8,256.7z"/>
	<path class="st0" d="M238,230.5c-6.8-2.5-7.8-15.1,0-19.2C238,217.8,238,224.2,238,230.5z"/>
	<path class="st0" d="M358.6,211.5c7.3,3.1,7.5,15.6,0,19.2C358.6,224.2,358.6,217.9,358.6,211.5z"/>
	<path d="M388.4,77c0-3.9,0-7.6,0-11.6c23.9,0,47.7,0,71.8,0c0,3.9,0,7.7,0,11.6C436.1,77,412.4,77,388.4,77z"/>
	<path d="M436.1,101.1c-16,0-31.7,0-47.6,0c0-3.9,0-7.7,0-11.8c15.8,0,31.6,0,47.6,0C436.1,93.1,436.1,96.9,436.1,101.1z"/>
	<path d="M448.5,100.9c0-4,0-7.7,0-11.7c3.9,0,7.7,0,11.7,0c0,3.8,0,7.6,0,11.7C456.3,100.9,452.5,100.9,448.5,100.9z"/>
</g>
</svg>
