<svg xmlns="http://www.w3.org/2000/svg" width="44.799" height="28.754" viewBox="0 0 44.799 28.754">
  <path id="wedding-couple-icon" d="M29.591,10.783a7.6,7.6,0,0,0,2.209-.211,5.217,5.217,0,0,0,1.765-.809c.077-.055.241-.2.416-.365.335-.306.729-.653.908-.653a3.052,3.052,0,0,1,.952.613c.1.08.182.149.237.19a8.178,8.178,0,0,0,1.36.809,5.1,5.1,0,0,0,1.316.4,2.136,2.136,0,0,0,.321,0c.365,0,.758,0,.926.233a.587.587,0,0,1,.1.273,1.185,1.185,0,0,1,0,.281c-.033.317-.084.667-.149,1.043a1.207,1.207,0,0,1,.886.634,1.01,1.01,0,0,1,.088.594,1.433,1.433,0,0,1-.222.565,1.863,1.863,0,0,1-1.378.806c-.077.226-.157.448-.244.664a8.451,8.451,0,0,1-.751,1.458,4.277,4.277,0,0,0,1.415-.944,5.834,5.834,0,0,0,1.5-3.015,8.255,8.255,0,0,0-.124-3.584,6.176,6.176,0,0,0-1.535-2.826c-.142-.139-.365-.31-.558-.478a5.31,5.31,0,0,0-.5-.365.817.817,0,1,1-.711-1.218H37.9a2.552,2.552,0,0,0-1.382-1.8,4.058,4.058,0,0,0-3.267-.2,2.935,2.935,0,0,0-1.823,1.994.817.817,0,0,1,.729.525.809.809,0,0,1-.073-.3.842.842,0,1,1,.055.3.817.817,0,0,1-1.513.605,7.511,7.511,0,0,0-2.793,4.284A7.365,7.365,0,0,0,27.673,13a5.71,5.71,0,0,0,.871,2.4,4.82,4.82,0,0,0,2.188,1.823,4.947,4.947,0,0,1-.43-.693,11.587,11.587,0,0,1-.467-1.342,1.856,1.856,0,0,1-1.338-.8,1.433,1.433,0,0,1-.222-.565,1.01,1.01,0,0,1,.087-.594,1.2,1.2,0,0,1,.828-.62,6.764,6.764,0,0,1-.106-.871c-.022-.485.077-.828.365-.926h0a.365.365,0,0,1,.124-.022ZM44.638,28.528v.222H.314v-.419H0c.456-5.363-.117-6.275,5.608-8.28a8.583,8.583,0,0,0,2.476-1.225,20.782,20.782,0,0,0,.729-2.038l.091-.277h0A16.123,16.123,0,0,1,7.657,14.7l-1.3-2.067a3.8,3.8,0,0,1-.729-1.892,1.5,1.5,0,0,1,.128-.675A1.262,1.262,0,0,1,6.2,9.547a1.488,1.488,0,0,1,.314-.16A33.062,33.062,0,0,1,6.45,5.667a5.272,5.272,0,0,1,.16-.842,5.477,5.477,0,0,1,3.61-3.5c.82-.281.51-1.367,1.327-1.324A11.051,11.051,0,0,1,17.636,3.1c1.612,1.859,1.2,4.149,1.141,6.417h0a.944.944,0,0,1,.689.707,2.856,2.856,0,0,1-.365,1.779h0a.124.124,0,0,1-.022.044L17.6,14.494a12.159,12.159,0,0,1-1.921,2.6l-.051.047.306.459c.27.4.58.868.864,1.24a8.116,8.116,0,0,0,2.293,1.134c2.84.992,4.82,1.316,5.6,3.763,1.189-2.253,4.423-2.771,6.238-3.063a6.082,6.082,0,0,0,1.025-.2.266.266,0,0,0,.084-.12.678.678,0,0,0,.04-.226v-1.5a.277.277,0,0,1,.011-.036c-.157-.124-.31-.252-.459-.386a.365.365,0,0,1-.168,0,5.691,5.691,0,0,1-3.5-2.4,6.432,6.432,0,0,1-.981-2.709,8.309,8.309,0,0,1,3.551-7.868.365.365,0,0,1,.16-.058.321.321,0,0,1,0-.186,3.646,3.646,0,0,1,2.33-2.753,4.711,4.711,0,0,1,3.8.233A3.19,3.19,0,0,1,38.611,5.12a.365.365,0,0,1-.047.193.394.394,0,0,1,.106.047c.208.135.5.343.769.554a7.865,7.865,0,0,1,.616.532,6.876,6.876,0,0,1,1.721,3.147,8.922,8.922,0,0,1,.131,3.894,6.5,6.5,0,0,1-1.688,3.376,5.137,5.137,0,0,1-2.374,1.364A.343.343,0,0,1,37.6,18.2a3.47,3.47,0,0,1-.314.259l-.062.044-.273.2a.4.4,0,0,1,0,.069v1.36a.675.675,0,0,0,.044.226.266.266,0,0,0,.084.12,5.9,5.9,0,0,0,1.025.2c2.253.365,6.69,1.072,6.69,5.013v2.552a.365.365,0,0,1-.164.3ZM9.6,21.418a1.719,1.719,0,0,1,0-2.574,7.657,7.657,0,0,1,2.687,1.287,7.587,7.587,0,0,0,2.917,1.4,1.746,1.746,0,0,0,.095-2.84,12.238,12.238,0,0,0-2.917,1.4A6.2,6.2,0,0,1,9.6,21.418Zm-2.3-11.43a1.251,1.251,0,0,0-.656.171.514.514,0,0,0-.19.215.755.755,0,0,0-.058.365A3.136,3.136,0,0,0,7,12.248H7l1.3,2.067a11.022,11.022,0,0,0,1.746,2.3,3.577,3.577,0,0,0,2.494,1.006,3.686,3.686,0,0,0,2.64-1.05,11.532,11.532,0,0,0,1.8-2.454L18.445,11.7a2.444,2.444,0,0,0,.31-1.283c-.04-.146-.2-.215-.474-.23H17.9a.386.386,0,0,1-.113,0,2.133,2.133,0,0,1-.4-.022l.5-2.22c-3.726.587-6.512-2.188-10.446-.554l.284,2.618a2.552,2.552,0,0,1-.434-.022Zm1.2,9.56-.033.04c.51,2.855,1.754,4.062,3.93,6.329,2.374-2.089,3.879-3.347,4.142-6.315a19.04,19.04,0,0,1-1.159-1.612c-.095-.146-.186-.284-.273-.408a4.463,4.463,0,0,1-5.553-.448l-.077-.073a12.454,12.454,0,0,1-1,2.472Zm16.48,5.586c.04.365.066.729.077,1.134,1.666-2.84,7.689-3.712,9.421,1.076C36.7,22.424,42.68,23.5,44.1,26.355v-.664c0-3.347-4.047-4.011-6.1-4.328a3.781,3.781,0,0,1-1.342-.339.948.948,0,0,1-.31-.416,1.539,1.539,0,0,1-.088-.467v-.984a3.11,3.11,0,0,1-1.991.481,3.387,3.387,0,0,1-.386-.073,4.13,4.13,0,0,1-.4-.131h0c-.222-.109-.448-.233-.671-.365v1.094a1.345,1.345,0,0,1-.088.467.97.97,0,0,1-.306.416,3.781,3.781,0,0,1-1.342.339c-1.936.314-5.637.908-6.063,3.77ZM8.641,10.083A.211.211,0,0,1,8.4,9.74a2.093,2.093,0,0,1,1.21-.423,2.133,2.133,0,0,1,1.236.423.208.208,0,0,1,.055.292.211.211,0,0,1-.292.055,1.714,1.714,0,0,0-1-.365,1.663,1.663,0,0,0-.97.346Zm2.724,5.279a.175.175,0,0,1,.033-.3.365.365,0,0,1,.412.026,1.287,1.287,0,0,0,.758.186,1.294,1.294,0,0,0,.758-.19.365.365,0,0,1,.416-.018.171.171,0,0,1,.026.3,1.987,1.987,0,0,1-1.2.335A1.994,1.994,0,0,1,11.365,15.362ZM14.343,11.3a.2.2,0,0,1-.058-.288.208.208,0,0,1,.3-.077,1.327,1.327,0,0,0,.729.16,1.48,1.48,0,0,0,.729-.16.211.211,0,0,1,.292.062.208.208,0,0,1-.066.288,1.863,1.863,0,0,1-.955.259,1.728,1.728,0,0,1-.97-.244Zm-5.524,0a.207.207,0,1,1,.219-.35,1.36,1.36,0,0,0,.729.168,1.56,1.56,0,0,0,.784-.182.211.211,0,0,1,.208.365,1.98,1.98,0,0,1-.977.241A1.761,1.761,0,0,1,8.82,11.3Zm5.71-1.214a.208.208,0,0,1-.292-.047.215.215,0,0,1,.051-.3,2.093,2.093,0,0,1,1.21-.423,2.14,2.14,0,0,1,1.236.423.217.217,0,0,1-.237.365,1.725,1.725,0,0,0-1-.365,1.677,1.677,0,0,0-.97.346Zm4.43,14.73H22.08a.2.2,0,0,1,.193.2v.23a.193.193,0,0,1-.193.193H18.959a.193.193,0,0,1-.193-.193v-.23a.2.2,0,0,1,.193-.2ZM31.1,12.515a.209.209,0,1,1-.244-.339,1.863,1.863,0,0,1,1.094-.365,1.929,1.929,0,0,1,1.116.365.211.211,0,0,1,.051.292.2.2,0,0,1-.288.051,1.575,1.575,0,0,0-.879-.306,1.48,1.48,0,0,0-.85.306Zm3.413,10.65.729.729-.729.729-.729-.729Zm0,.489.255.252-.255.255-.252-.255Zm1.458-.591a.43.43,0,1,0,.43.43.43.43,0,0,0-.43-.43Zm-2.884,0a.43.43,0,1,1-.43.43.43.43,0,0,1,.43-.43Zm3.989-.656a.43.43,0,1,0,.43.43A.43.43,0,0,0,37.08,22.406Zm-5.1,0a.43.43,0,1,1-.43.43A.43.43,0,0,1,31.976,22.406Zm5.928-.944a.43.43,0,1,0,.43.43A.43.43,0,0,0,37.9,21.462Zm-6.756,0a.43.43,0,1,1-.43.43A.43.43,0,0,1,31.148,21.462ZM33.7,17.017a.193.193,0,0,1,.117-.241.19.19,0,0,1,.237.113.317.317,0,0,0,.2.175.883.883,0,0,0,.613.015.4.4,0,0,0,.248-.2.186.186,0,1,1,.343.142.755.755,0,0,1-.467.408,1.291,1.291,0,0,1-.445.066,1.232,1.232,0,0,1-.438-.088.7.7,0,0,1-.4-.394Zm2.84-3.281-.2.255a.211.211,0,0,1-.328-.263l.135-.168a.211.211,0,0,1-.033-.27.215.215,0,0,1,.292-.058,1.145,1.145,0,0,0,.623.139,1.269,1.269,0,0,0,.645-.168.211.211,0,0,1,.288.066.208.208,0,0,1-.058.284l.149.164a.211.211,0,1,1-.31.284l-.248-.273-.241.044v.244a.211.211,0,0,1-.419,0v-.233a2.552,2.552,0,0,1-.292-.047Zm-4.908,0-.2.252a.2.2,0,0,1-.292.033.208.208,0,0,1-.033-.3l.128-.16a.208.208,0,0,1-.044-.277.215.215,0,0,1,.292-.058,1.145,1.145,0,0,0,.609.146h.091a1.385,1.385,0,0,0,.609-.16.214.214,0,1,1,.222.365l.135.146a.215.215,0,0,1,0,.3.211.211,0,0,1-.3,0l-.241-.263a2.086,2.086,0,0,0-.248.044v.233a.211.211,0,0,1-.419,0v-.226a1.845,1.845,0,0,1-.3-.051Zm4.74-1.243a.211.211,0,0,1-.292-.051.208.208,0,0,1,.051-.288,1.845,1.845,0,0,1,1.094-.365,1.929,1.929,0,0,1,1.116.365.208.208,0,0,1-.237.343,1.564,1.564,0,0,0-.879-.306,1.48,1.48,0,0,0-.85.306Zm-6.716,2.089c-.131-.467-.259-.963-.365-1.433a.649.649,0,0,0-.434.314.467.467,0,0,0-.036.277.813.813,0,0,0,.135.335,1.269,1.269,0,0,0,.7.507Zm.146-1.728.459,1.863a13.815,13.815,0,0,0,.521,1.56,5.338,5.338,0,0,0,1.152,1.458,7.427,7.427,0,0,0,1.736,1.189c.113.044.222.077.324.106a2.421,2.421,0,0,0,.317.058,3.691,3.691,0,0,0,2.581-1.035l.062-.047a5.445,5.445,0,0,0,1.575-2.355A16.812,16.812,0,0,0,39.537,11.5a.645.645,0,0,0,0-.146v-.029h-.474a2.727,2.727,0,0,1-.4,0,5.469,5.469,0,0,1-1.458-.448,8.43,8.43,0,0,1-1.458-.868c-.051-.036-.149-.113-.263-.208-.244-.2-.587-.485-.6-.485s-.27.27-.532.507q-.211.2-.441.383a5.721,5.721,0,0,1-1.951.9,8,8,0,0,1-2.319.226l.018.365a7.383,7.383,0,0,0,.164,1.148Zm10.074.3-.365,1.437a1.262,1.262,0,0,0,.7-.51.813.813,0,0,0,.135-.335.467.467,0,0,0-.036-.277.638.638,0,0,0-.438-.314ZM36.23,4.256a.848.848,0,1,1-.594.249.846.846,0,0,1,.594-.249Zm-1.652-.248a.817.817,0,1,1-.817.817A.817.817,0,0,1,34.579,4.008Z" transform="translate(0 0.004)" fill="#fc4f08" fill-rule="evenodd"/>
</svg>
